<svg id="svg" xmlns="http://www.w3.org/2000/svg" xmlns:xlink="http://www.w3.org/1999/xlink" width="400" height="400" viewBox="0, 0, 400,400"><g id="svgg"><path id="path0" d="M97.700 157.221 C 85.923 158.457,75.792 166.005,70.482 177.498 C 69.327 179.999,69.831 181.767,71.793 182.099 C 73.322 182.357,73.820 181.906,75.406 178.827 C 84.793 160.599,104.425 156.654,121.449 169.576 C 124.696 172.040,125.073 172.186,126.407 171.497 C 128.703 170.309,127.963 168.153,124.316 165.412 C 116.063 159.209,106.576 156.289,97.700 157.221 M51.936 181.950 C 51.888 182.033,50.564 186.488,48.993 191.852 C 47.423 197.216,46.118 201.581,46.094 201.552 C 46.070 201.523,45.355 199.025,44.504 196.000 C 42.269 188.055,42.547 188.171,39.274 193.800 C 36.967 197.767,36.752 198.358,37.320 199.168 C 38.207 200.435,39.675 200.116,40.628 198.450 L 41.271 197.327 43.201 204.151 C 45.199 211.218,45.348 211.600,46.100 211.600 C 46.823 211.600,46.854 211.517,49.709 201.790 C 51.208 196.681,52.457 192.478,52.483 192.451 C 52.509 192.425,53.999 197.780,55.794 204.351 C 59.214 216.877,59.322 217.200,60.080 217.200 C 60.858 217.200,60.938 216.976,63.803 206.755 C 65.322 201.335,66.611 197.035,66.667 197.200 C 66.823 197.660,67.507 199.875,68.196 202.150 L 68.817 204.200 81.178 204.200 L 93.540 204.200 93.663 202.350 C 94.503 189.764,107.928 183.377,117.786 190.874 C 118.769 191.622,118.772 191.415,117.805 189.463 C 112.188 178.128,94.901 181.230,89.576 194.529 C 88.895 196.229,88.200 198.799,88.200 199.616 C 88.200 200.877,88.754 200.800,79.694 200.800 L 71.431 200.800 71.225 200.150 C 71.111 199.793,70.196 196.800,69.192 193.500 C 67.245 187.101,67.202 187.000,66.480 187.000 C 65.727 187.000,65.578 187.419,62.918 197.000 C 61.528 202.005,60.323 206.265,60.240 206.466 C 60.140 206.711,58.968 202.743,56.725 194.566 C 54.875 187.820,53.269 182.188,53.156 182.050 C 52.933 181.778,52.077 181.708,51.936 181.950 M88.200 206.825 C 88.200 207.374,89.653 211.314,90.415 212.830 C 94.614 221.185,103.170 225.425,112.971 224.008 C 114.621 223.770,114.588 224.011,113.389 221.009 C 112.151 217.912,112.454 218.182,110.505 218.424 C 103.780 219.259,97.376 215.221,94.191 208.138 L 93.500 206.600 90.850 206.600 C 89.023 206.600,88.200 206.670,88.200 206.825 M267.700 220.200 C 267.394 221.163,268.192 221.823,268.987 221.267 C 269.765 220.721,269.380 219.800,268.373 219.800 C 268.003 219.800,267.786 219.929,267.700 220.200 M306.753 220.323 C 306.544 220.782,306.569 220.891,306.956 221.205 C 307.755 221.851,308.619 221.205,308.300 220.200 C 308.101 219.572,307.057 219.655,306.753 220.323 M321.859 220.026 C 321.065 220.250,320.600 220.885,320.600 221.745 C 320.600 222.267,320.519 222.400,320.200 222.400 C 319.889 222.400,319.800 222.533,319.800 223.000 C 319.800 223.467,319.889 223.600,320.200 223.600 C 320.576 223.600,320.600 223.733,320.600 225.800 L 320.600 228.000 321.300 228.000 L 322.000 228.000 322.000 225.800 L 322.000 223.600 322.700 223.600 C 323.344 223.600,323.400 223.552,323.400 223.000 C 323.400 222.448,323.344 222.400,322.700 222.400 C 322.149 222.400,322.000 222.320,322.000 222.024 C 322.000 221.524,322.441 221.183,323.004 221.248 C 323.444 221.298,323.990 220.327,323.632 220.129 C 323.245 219.914,322.425 219.867,321.859 220.026 M332.553 220.323 C 332.344 220.782,332.369 220.891,332.756 221.205 C 333.555 221.851,334.419 221.205,334.100 220.200 C 333.901 219.572,332.857 219.655,332.553 220.323 M298.400 224.000 L 298.400 228.000 299.100 228.000 C 299.768 228.000,299.800 227.968,299.800 227.293 C 299.800 226.640,300.277 225.596,300.573 225.603 C 300.643 225.605,301.015 226.143,301.400 226.800 C 302.080 227.960,302.124 227.994,302.950 227.997 C 303.989 228.001,303.991 227.958,303.020 226.455 C 301.608 224.270,301.622 224.493,302.823 223.276 L 303.886 222.200 302.899 222.200 C 301.978 222.200,301.842 222.269,300.856 223.243 L 299.800 224.286 299.800 222.143 L 299.800 220.000 299.100 220.000 L 298.400 220.000 298.400 224.000 M337.800 224.000 L 337.800 228.000 338.600 228.000 L 339.400 228.000 339.400 227.131 C 339.400 225.511,339.967 225.386,340.857 226.809 C 341.589 227.980,341.616 228.000,342.512 228.000 C 343.186 228.000,343.386 227.935,343.278 227.750 C 343.198 227.613,342.685 226.796,342.137 225.935 L 341.143 224.371 342.214 223.285 L 343.286 222.200 342.399 222.200 C 341.599 222.200,341.410 222.301,340.456 223.243 L 339.400 224.286 339.400 222.143 L 339.400 220.000 338.600 220.000 L 337.800 220.000 337.800 224.000 M236.771 220.428 C 234.458 221.068,234.461 223.699,236.774 224.510 C 238.611 225.155,239.000 225.380,239.000 225.801 C 239.000 226.750,237.255 226.806,235.920 225.901 L 235.200 225.412 234.896 226.141 C 234.652 226.725,234.642 226.905,234.845 227.043 C 237.338 228.726,240.613 228.053,240.671 225.845 C 240.699 224.778,240.197 224.106,239.058 223.687 C 236.827 222.867,236.768 222.832,236.836 222.354 C 236.918 221.771,238.269 221.619,239.179 222.089 C 240.034 222.531,240.600 222.169,240.600 221.180 C 240.600 220.614,237.968 220.097,236.771 220.428 M261.600 221.600 C 261.600 222.267,261.533 222.400,261.200 222.400 C 260.889 222.400,260.800 222.533,260.800 223.000 C 260.800 223.467,260.889 223.600,261.200 223.600 C 261.570 223.600,261.600 223.733,261.600 225.385 C 261.600 227.738,262.445 228.505,264.272 227.810 C 265.089 227.500,264.717 226.500,263.785 226.500 L 263.100 226.500 263.041 225.050 L 262.982 223.600 263.791 223.600 C 264.557 223.600,264.600 223.568,264.600 223.000 C 264.600 222.433,264.556 222.400,263.800 222.400 L 263.000 222.400 263.000 221.600 C 263.000 220.819,262.983 220.800,262.300 220.800 C 261.617 220.800,261.600 220.819,261.600 221.600 M245.300 222.177 C 243.916 222.531,243.610 222.864,244.078 223.504 C 244.318 223.833,244.428 223.851,244.888 223.642 C 245.568 223.332,246.651 223.331,246.960 223.640 C 247.482 224.162,247.201 224.355,245.799 224.434 C 244.070 224.532,243.509 224.964,243.509 226.200 C 243.509 227.591,245.285 228.504,246.611 227.794 C 246.956 227.609,247.101 227.603,247.157 227.771 C 247.199 227.897,247.586 228.000,248.017 228.000 L 248.800 228.000 248.800 225.913 C 248.800 222.599,247.805 221.537,245.300 222.177 M286.700 222.186 C 285.330 222.516,285.009 222.862,285.478 223.504 C 285.718 223.833,285.828 223.851,286.288 223.642 C 287.022 223.307,287.911 223.339,288.286 223.714 C 288.817 224.245,288.652 224.352,287.176 224.435 C 285.919 224.506,285.696 224.581,285.276 225.069 C 283.947 226.614,285.640 228.485,287.773 227.830 C 288.239 227.686,288.524 227.677,288.567 227.803 C 288.603 227.911,288.986 228.000,289.418 228.000 L 290.202 228.000 290.077 225.650 C 289.902 222.336,289.173 221.589,286.700 222.186 M313.300 222.177 C 311.916 222.531,311.610 222.864,312.078 223.504 C 312.318 223.833,312.428 223.851,312.888 223.642 C 313.568 223.332,314.651 223.331,314.960 223.640 C 315.482 224.162,315.201 224.355,313.799 224.434 C 312.070 224.532,311.509 224.964,311.509 226.200 C 311.509 227.591,313.285 228.504,314.611 227.794 C 314.956 227.609,315.101 227.603,315.157 227.771 C 315.199 227.897,315.586 228.000,316.017 228.000 L 316.800 228.000 316.800 225.913 C 316.800 222.599,315.805 221.537,313.300 222.177 M328.937 222.203 C 328.628 222.296,328.245 222.480,328.087 222.611 C 327.858 222.801,327.800 222.784,327.800 222.524 C 327.800 222.279,327.605 222.200,327.000 222.200 L 326.200 222.200 326.200 225.100 L 326.200 228.000 327.000 228.000 L 327.800 228.000 327.800 226.215 C 327.800 224.312,328.188 223.600,329.227 223.600 C 329.529 223.600,329.600 223.447,329.600 222.800 C 329.600 222.360,329.578 222.008,329.550 222.017 C 329.523 222.027,329.247 222.110,328.937 222.203 M347.300 222.177 C 345.916 222.531,345.610 222.864,346.078 223.504 C 346.318 223.833,346.428 223.851,346.888 223.642 C 347.568 223.332,348.651 223.331,348.960 223.640 C 349.482 224.162,349.201 224.355,347.799 224.434 C 346.070 224.532,345.509 224.964,345.509 226.200 C 345.509 227.591,347.285 228.504,348.611 227.794 C 348.956 227.609,349.101 227.603,349.157 227.771 C 349.199 227.897,349.586 228.000,350.017 228.000 L 350.800 228.000 350.800 225.913 C 350.800 222.599,349.805 221.537,347.300 222.177 M252.001 223.950 C 252.003 227.518,253.374 228.929,255.550 227.602 C 256.198 227.207,256.200 227.207,256.200 227.603 C 256.200 227.923,256.335 228.000,256.900 228.000 L 257.600 228.000 257.600 225.100 L 257.600 222.200 256.925 222.200 L 256.250 222.200 256.159 223.931 C 256.076 225.520,256.023 225.701,255.515 226.138 C 254.315 227.170,253.600 226.357,253.600 223.962 L 253.600 222.200 252.800 222.200 L 252.000 222.200 252.001 223.950 M267.800 225.100 L 267.800 228.000 268.500 228.000 L 269.200 228.000 269.200 225.100 L 269.200 222.200 268.500 222.200 L 267.800 222.200 267.800 225.100 M276.800 222.382 C 276.800 222.483,277.237 223.585,277.771 224.832 C 278.305 226.080,278.803 227.293,278.878 227.529 C 279.071 228.139,278.507 228.655,277.813 228.503 C 277.052 228.336,276.493 229.281,277.094 229.720 C 278.664 230.869,279.681 229.903,281.390 225.639 L 282.776 222.178 281.955 222.239 L 281.134 222.300 280.517 224.049 C 279.764 226.185,279.846 226.188,279.000 224.000 L 278.304 222.200 277.552 222.200 C 277.138 222.200,276.800 222.282,276.800 222.382 M306.800 225.100 L 306.800 228.000 307.500 228.000 L 308.200 228.000 308.200 225.100 L 308.200 222.200 307.500 222.200 L 306.800 222.200 306.800 225.100 M332.600 225.100 L 332.600 228.000 333.300 228.000 L 334.000 228.000 334.000 225.100 L 334.000 222.200 333.300 222.200 L 332.600 222.200 332.600 225.100 M247.164 225.843 C 247.014 226.881,245.000 227.130,245.000 226.111 C 245.000 225.583,245.263 225.460,246.464 225.423 C 247.144 225.403,247.221 225.449,247.164 225.843 M288.564 225.843 C 288.429 226.780,286.638 227.109,286.311 226.257 C 286.119 225.757,286.719 225.400,287.752 225.400 C 288.542 225.400,288.622 225.443,288.564 225.843 M315.164 225.843 C 315.014 226.881,313.000 227.130,313.000 226.111 C 313.000 225.583,313.263 225.460,314.464 225.423 C 315.144 225.403,315.221 225.449,315.164 225.843 M349.164 225.843 C 349.014 226.881,347.000 227.130,347.000 226.111 C 347.000 225.583,347.263 225.460,348.464 225.423 C 349.144 225.403,349.221 225.449,349.164 225.843 " stroke="none" fill="#945384" fill-rule="evenodd"></path><path id="path1" d="M98.532 169.026 C 89.189 170.227,80.174 177.891,76.804 187.500 C 75.742 190.528,74.817 195.223,74.804 197.650 L 74.800 198.400 78.988 198.400 L 83.175 198.400 83.305 197.450 C 84.090 191.706,86.600 185.996,89.914 182.419 C 98.131 173.547,114.809 174.667,120.285 184.460 C 122.792 188.943,122.806 195.063,120.318 199.000 C 119.497 200.298,119.616 200.544,120.906 200.219 C 121.418 200.090,122.009 200.039,122.219 200.106 C 123.222 200.424,122.099 203.673,120.612 204.756 C 118.918 205.990,118.002 207.807,118.819 208.312 C 119.746 208.884,124.399 202.261,125.571 198.700 C 127.326 193.372,126.958 185.841,124.730 181.507 C 120.009 172.324,109.995 167.553,98.532 169.026 M135.247 195.350 C 135.331 210.881,135.419 211.417,138.399 214.404 C 141.181 217.192,143.061 217.650,152.150 217.752 L 159.200 217.831 159.200 214.616 L 159.200 211.400 154.550 211.398 C 142.419 211.395,142.810 211.976,142.804 193.950 L 142.800 182.600 138.989 182.600 L 135.178 182.600 135.247 195.350 M163.400 186.100 L 163.400 189.600 167.000 189.600 L 170.600 189.600 170.600 186.100 L 170.600 182.600 167.000 182.600 L 163.400 182.600 163.400 186.100 M249.842 183.550 C 248.722 186.165,235.935 217.148,235.851 217.450 C 235.760 217.776,236.063 217.800,240.239 217.800 L 244.725 217.800 246.413 213.701 L 248.100 209.601 254.615 209.601 L 261.129 209.600 262.815 213.699 L 264.500 217.797 268.973 217.799 C 273.139 217.800,273.440 217.776,273.346 217.450 C 273.291 217.257,270.075 209.450,266.201 200.100 C 262.326 190.750,259.111 182.988,259.057 182.850 C 258.981 182.661,257.900 182.600,254.603 182.600 L 250.249 182.600 249.842 183.550 M284.000 182.872 C 280.719 183.584,279.298 185.618,279.057 189.950 L 278.943 192.000 276.671 192.000 L 274.400 192.000 274.400 194.900 L 274.400 197.800 276.700 197.800 L 279.000 197.800 279.000 207.800 L 279.000 217.800 282.600 217.800 L 286.200 217.800 286.200 207.800 L 286.200 197.800 289.500 197.800 L 292.800 197.800 292.800 194.900 L 292.800 192.000 289.500 192.000 L 286.200 192.000 286.200 191.304 C 286.200 189.032,287.150 188.347,290.450 188.236 L 292.800 188.158 292.800 185.379 L 292.800 182.600 288.950 182.617 C 286.784 182.626,284.619 182.738,284.000 182.872 M321.000 186.100 L 321.000 189.600 324.600 189.600 L 328.200 189.600 328.200 186.100 L 328.200 182.600 324.600 182.600 L 321.000 182.600 321.000 186.100 M257.050 197.450 L 259.358 203.100 256.979 203.156 C 255.671 203.187,253.538 203.187,252.239 203.156 L 249.878 203.100 252.185 197.450 C 253.454 194.343,254.548 191.800,254.617 191.800 C 254.686 191.800,255.781 194.343,257.050 197.450 M163.400 204.900 L 163.400 217.800 167.000 217.800 L 170.600 217.800 170.600 204.900 L 170.600 192.000 167.000 192.000 L 163.400 192.000 163.400 204.900 M177.200 204.882 L 177.200 217.800 180.900 217.800 L 184.600 217.800 184.600 207.800 L 184.600 197.800 188.153 197.800 C 194.230 197.800,193.882 197.138,193.958 208.850 L 194.016 217.800 197.608 217.800 L 201.200 217.800 201.197 208.850 C 201.192 197.750,200.947 196.264,198.803 194.327 C 196.594 192.330,195.623 192.164,185.550 192.054 L 177.200 191.963 177.200 204.882 M216.562 192.209 C 208.714 193.124,204.413 200.243,206.481 208.894 C 208.014 215.302,211.572 217.591,220.250 217.750 L 225.000 217.837 224.999 218.668 C 224.997 221.071,224.527 221.197,215.550 221.199 L 208.400 221.200 208.400 224.000 L 208.400 226.800 216.650 226.797 C 228.008 226.792,229.458 226.409,231.229 222.944 C 232.285 220.880,232.269 221.118,232.348 206.050 L 232.422 192.000 225.161 192.026 C 221.167 192.041,217.298 192.123,216.562 192.209 M296.800 204.877 L 296.800 217.800 300.400 217.800 L 304.000 217.800 304.000 207.800 L 304.000 197.800 305.727 197.800 C 309.370 197.800,310.396 198.799,310.399 202.350 L 310.400 203.800 313.927 203.800 L 317.454 203.800 317.349 200.850 C 317.071 193.070,315.775 192.232,303.750 192.056 L 296.800 191.955 296.800 204.877 M321.000 204.900 L 321.000 217.800 324.600 217.800 L 328.200 217.800 328.200 204.900 L 328.200 192.000 324.600 192.000 L 321.000 192.000 321.000 204.900 M343.600 192.213 C 335.977 192.918,331.687 200.281,333.716 209.177 C 335.094 215.225,339.330 217.789,347.950 217.797 L 352.200 217.800 352.200 222.600 L 352.200 227.400 355.900 227.400 L 359.600 227.400 359.600 209.700 L 359.600 192.000 352.450 192.028 C 348.518 192.043,344.535 192.127,343.600 192.213 M103.833 192.760 C 102.741 193.027,102.541 193.031,102.380 192.785 C 102.219 192.540,102.158 192.543,101.946 192.803 C 101.811 192.969,101.448 193.266,101.141 193.463 C 100.834 193.660,100.498 194.042,100.395 194.313 C 100.292 194.584,99.960 194.916,99.657 195.052 C 98.483 195.579,97.372 197.093,97.480 198.018 C 97.523 198.393,97.433 198.942,97.280 199.240 C 96.845 200.080,96.942 200.588,97.700 201.426 C 98.085 201.852,98.400 202.268,98.400 202.351 C 98.403 203.378,100.488 203.646,104.048 203.076 C 104.626 202.984,104.824 203.030,104.919 203.278 C 105.000 203.487,105.283 203.600,105.728 203.600 C 106.540 203.600,106.766 203.992,106.445 204.843 C 106.245 205.372,106.287 205.496,106.893 206.166 C 107.809 207.180,108.366 208.863,107.929 209.300 C 107.365 209.864,107.308 210.904,107.799 211.698 C 108.041 212.090,108.359 212.867,108.507 213.425 C 108.654 213.983,108.901 214.589,109.057 214.770 C 109.387 215.156,109.680 215.827,109.625 216.071 C 109.457 216.812,111.694 216.954,113.015 216.286 C 113.670 215.955,115.000 214.492,115.000 214.103 C 115.000 213.941,115.225 213.751,115.500 213.682 C 115.937 213.572,116.000 213.448,116.000 212.687 C 116.000 211.859,116.046 211.790,116.950 211.268 C 117.472 210.966,117.966 210.625,118.047 210.510 C 118.267 210.196,118.230 208.442,118.000 208.300 C 117.099 207.743,117.940 206.295,120.487 204.015 C 121.584 203.033,122.534 200.352,121.666 200.685 C 120.301 201.209,119.201 201.233,119.199 200.738 C 119.198 200.607,118.878 200.283,118.488 200.017 C 118.098 199.751,117.680 199.346,117.560 199.117 C 117.440 198.888,117.220 198.628,117.071 198.540 C 116.922 198.452,116.800 198.281,116.800 198.161 C 116.800 198.040,116.483 197.464,116.096 196.881 C 115.641 196.195,115.407 195.620,115.435 195.254 C 115.503 194.361,115.296 194.206,114.143 194.290 C 113.569 194.331,112.569 194.222,111.920 194.048 C 110.768 193.738,110.732 193.741,110.397 194.154 C 110.066 194.563,109.266 194.582,109.000 194.186 C 108.945 194.104,108.585 193.955,108.200 193.855 C 107.581 193.695,107.504 193.603,107.534 193.066 L 107.568 192.457 106.334 192.453 C 105.655 192.451,104.530 192.589,103.833 192.760 M225.000 205.019 L 225.000 212.239 221.450 212.165 C 214.966 212.029,212.769 209.544,213.612 203.300 C 214.205 198.908,215.754 197.823,221.450 197.809 L 225.000 197.800 225.000 205.019 M352.200 205.023 L 352.200 212.246 348.850 212.150 C 345.009 212.039,344.127 211.815,342.739 210.593 C 339.985 208.169,339.974 201.641,342.720 199.224 C 344.070 198.036,344.979 197.827,348.850 197.812 L 352.200 197.800 352.200 205.023 M75.601 206.946 C 75.603 209.034,78.995 218.403,81.316 222.736 C 89.075 237.219,104.001 246.113,113.200 241.736 C 120.993 238.027,120.932 227.526,113.068 219.030 L 112.207 218.100 113.115 220.295 C 114.325 223.224,115.308 226.804,115.589 229.315 C 116.579 238.137,107.531 240.191,97.612 233.397 C 91.387 229.134,86.328 219.864,84.023 208.500 L 83.658 206.700 79.629 206.646 C 75.887 206.596,75.600 206.617,75.601 206.946 " stroke="none" fill="#341424" fill-rule="evenodd"></path></g></svg>